<svg width="19" height="16" viewBox="0 0 19 16" fill="none" xmlns="http://www.w3.org/2000/svg">
<path d="M9.5 6.29916e-06C7.6889 -0.00209162 5.91504 0.519882 4.38791 1.50428C2.86078 2.48868 1.64417 3.89438 0.88176 5.55537C0.119354 7.21636 -0.157 9.06326 0.085337 10.8779C0.327674 12.6926 1.07858 14.3993 2.24937 15.7964L2.422 16H16.578L16.7506 15.7964C17.9214 14.3993 18.6723 12.6926 18.9147 10.8779C19.157 9.06326 18.8806 7.21636 18.1182 5.55537C17.3558 3.89438 16.1392 2.48868 14.6121 1.50428C13.085 0.519882 11.3111 -0.00209162 9.5 6.29916e-06ZM14.4488 5.51564L11.0422 8.896C11.2163 9.26818 11.2547 9.69061 11.1506 10.0886C11.0465 10.4867 10.8065 10.8347 10.4732 11.0712C10.1399 11.3076 9.73459 11.4174 9.32898 11.381C8.92337 11.3446 8.54354 11.1644 8.25662 10.8722C7.9697 10.58 7.79416 10.1948 7.76102 9.7844C7.72788 9.37405 7.83927 8.96507 8.07551 8.62972C8.31176 8.29437 8.65764 8.05426 9.05203 7.9518C9.44643 7.84935 9.86395 7.89115 10.2308 8.06982L13.6317 4.68946L14.4488 5.51564ZM1.21356 9.10546H3.17008V10.2691H1.19054C1.19054 10.0422 1.16177 9.82109 1.16177 9.58837C1.16177 9.35564 1.17328 9.26837 1.18479 9.10546H1.21356ZM4.02174 3.28728L5.43734 4.71855L4.59144 5.52146L3.17008 4.096C3.42519 3.80174 3.70014 3.52568 3.99297 3.26982L4.02174 3.28728ZM10.0754 3.22328H8.92455V1.18691H9.5C9.71291 1.18691 9.90281 1.18691 10.0754 1.21601V3.22328ZM17.8382 9.59418C17.8382 9.82109 17.8382 10.0538 17.8095 10.2749H15.7839V9.11127H17.8152C17.8267 9.26837 17.8382 9.43128 17.8382 9.59418Z" fill="#FFDDD2"/>
</svg>
