<svg width="30" height="30" viewBox="0 0 30 30" fill="none" xmlns="http://www.w3.org/2000/svg">
<path d="M13.3824 0.00605146C5.86419 0.824828 0 7.20794 0 14.9613C0 18.9498 1.58419 22.7749 4.40406 25.5953C7.22392 28.4156 11.0485 30 15.0364 30C22.7718 30 29.1539 24.1516 29.9892 16.6322C30.1396 15.3122 28.6861 14.2594 27.4163 15.0448C26.0525 15.9155 24.4797 16.4035 22.8626 16.4578C21.2455 16.5122 19.6436 16.1308 18.2244 15.3536C16.8052 14.5764 15.6209 13.432 14.7956 12.0402C13.9702 10.6483 13.534 9.06013 13.5327 7.44188C13.5327 5.67065 14.0507 3.99968 14.9361 2.61277C15.688 1.49322 14.8693 -0.110917 13.3824 0.00605146Z" fill="#006D77"/>
</svg>
