<svg width="26" height="32" viewBox="0 0 26 32" fill="none" xmlns="http://www.w3.org/2000/svg">
<path d="M4.75 25.8V13.2C4.75 10.9722 5.61919 8.8356 7.16637 7.26029C8.71354 5.68499 10.812 4.79999 13 4.79999C15.188 4.79999 17.2865 5.68499 18.8336 7.26029C20.3808 8.8356 21.25 10.9722 21.25 13.2V25.8M4.75 25.8H21.25M4.75 25.8H2M21.25 25.8H24M11.625 30H14.375" stroke="#006D77" stroke-width="2.5" stroke-linecap="round" stroke-linejoin="round"/>
<path d="M13 4.8C13.7594 4.8 14.375 4.1732 14.375 3.4C14.375 2.6268 13.7594 2 13 2C12.2406 2 11.625 2.6268 11.625 3.4C11.625 4.1732 12.2406 4.8 13 4.8Z" stroke="#006D77" stroke-width="2.5"/>
</svg>
