<svg width="17" height="17" viewBox="0 0 17 17" fill="none" xmlns="http://www.w3.org/2000/svg">
<path d="M8.5 0C6.25408 0.0270964 4.10778 0.931329 2.51955 2.51955C0.931329 4.10778 0.0270964 6.25408 0 8.5C0.0270964 10.7459 0.931329 12.8922 2.51955 14.4804C4.10778 16.0687 6.25408 16.9729 8.5 17C10.7459 16.9729 12.8922 16.0687 14.4804 14.4804C16.0687 12.8922 16.9729 10.7459 17 8.5C16.9729 6.25408 16.0687 4.10778 14.4804 2.51955C12.8922 0.931329 10.7459 0.0270964 8.5 0ZM13.3571 9.10714H9.10714V13.3571H7.89286V9.10714H3.64286V7.89286H7.89286V3.64286H9.10714V7.89286H13.3571V9.10714Z" fill="#FFDDD2"/>
</svg>
