<svg width="20" height="11" viewBox="0 0 20 11" fill="none" xmlns="http://www.w3.org/2000/svg">
<path d="M14.6978 0.263205C14.6152 0.182234 14.5172 0.117994 14.4092 0.0741636C14.3013 0.030333 14.1856 0.00777177 14.0687 0.00777177C13.9519 0.00777177 13.8362 0.030333 13.7282 0.0741636C13.6203 0.117994 13.5222 0.182234 13.4397 0.263205L8.40734 5.18942L9.66543 6.42098L14.6978 1.48602C15.0368 1.15412 15.0368 0.595113 14.6978 0.263205ZM18.481 0.25447L9.66543 8.88408L6.56036 5.85324C6.39352 5.68992 6.16725 5.59818 5.93131 5.59818C5.69537 5.59818 5.4691 5.68992 5.30227 5.85324C5.13543 6.01655 5.04171 6.23805 5.04171 6.46902C5.04171 6.69998 5.13543 6.92148 5.30227 7.08479L9.03192 10.7358C9.3799 11.0764 9.94203 11.0764 10.29 10.7358L19.7391 1.49476C19.8218 1.41395 19.8874 1.31797 19.9322 1.21231C19.977 1.10665 20 0.993376 20 0.878982C20 0.764589 19.977 0.651318 19.9322 0.545655C19.8874 0.439992 19.8218 0.34401 19.7391 0.263205H19.7301C19.6496 0.180754 19.553 0.114971 19.4461 0.0697617C19.3391 0.0245521 19.224 0.000836372 19.1074 2.1726e-05C18.9909 -0.00079292 18.8755 0.0213099 18.7678 0.0650192C18.6602 0.108728 18.5627 0.173153 18.481 0.25447ZM0.260987 7.09353L3.99064 10.7445C4.33862 11.0852 4.90075 11.0852 5.24873 10.7445L5.87331 10.1331L1.51908 5.85324C1.43653 5.77227 1.33848 5.70803 1.23054 5.6642C1.1226 5.62037 1.00689 5.59781 0.890031 5.59781C0.773173 5.59781 0.657462 5.62037 0.549522 5.6642C0.441583 5.70803 0.343533 5.77227 0.260987 5.85324C-0.0869955 6.19388 -0.0869955 6.75288 0.260987 7.09353Z" fill="#FFDDD2"/>
</svg>
