<svg width="30" height="30" viewBox="0 0 30 30" fill="none" xmlns="http://www.w3.org/2000/svg">
<path d="M21 12C21 13.5913 20.3679 15.1175 19.2426 16.2427C18.1174 17.3679 16.5913 18 15 18C13.4087 18 11.8826 17.3679 10.7574 16.2427C9.63214 15.1175 9 13.5913 9 12C9 10.4087 9.63214 8.88261 10.7574 7.75739C11.8826 6.63217 13.4087 6.00003 15 6.00003C16.5913 6.00003 18.1174 6.63217 19.2426 7.75739C20.3679 8.88261 21 10.4087 21 12Z" fill="#006D77"/>
<path fill-rule="evenodd" clip-rule="evenodd" d="M14.388 29.988C6.38775 29.667 0 23.079 0 15C0 6.7155 6.7155 0 15 0C23.2845 0 30 6.7155 30 15C30 23.2845 23.2845 30 15 30C14.9315 30.0004 14.863 30.0004 14.7945 30C14.6587 30 14.523 29.9955 14.388 29.988ZM5.3745 24.465C5.26235 24.1429 5.22417 23.7997 5.26281 23.4609C5.30145 23.122 5.4159 22.7963 5.59768 22.5077C5.77946 22.2191 6.0239 21.9752 6.31284 21.7941C6.60179 21.6129 6.92782 21.4992 7.26675 21.4613C13.1138 20.814 16.9222 20.8725 22.7407 21.4748C23.0801 21.5101 23.407 21.6224 23.6964 21.8032C23.9858 21.9839 24.2301 22.2283 24.4108 22.5178C24.5915 22.8072 24.7037 23.1341 24.739 23.4735C24.7742 23.8129 24.7316 24.1558 24.6143 24.4762C27.108 21.9532 28.5045 18.5475 28.5 15C28.5 7.54425 22.4557 1.5 15 1.5C7.54425 1.5 1.5 7.54425 1.5 15C1.5 18.687 2.97825 22.029 5.3745 24.465Z" fill="#006D77"/>
</svg>
